<svg id="Capa_1" data-name="Capa 1" xmlns="http://www.w3.org/2000/svg" viewBox="0 0 409 152"><defs><style>.cls-1{fill:#fff;}</style></defs><path class="cls-1" d="M210.61,60l-4.73,5.65a60,60,0,0,0,.67,7.71,8.71,8.71,0,0,0,2.08,4.88v.35H190.39v-.35c1.13-1.18,1.88-3.09,2.23-5.73a69.37,69.37,0,0,0,.53-9V44.24a69.48,69.48,0,0,0-.53-9.05c-.35-2.64-1.1-4.55-2.23-5.72v-.36h18.24v.36q-1.69,1.76-2.22,5.72a67.77,67.77,0,0,0-.53,9.05v4.88l9.19-11c.28-.37.63-.86,1.06-1.45s.85-1.19,1.27-1.8A12.41,12.41,0,0,0,218.46,33a3.92,3.92,0,0,0,.43-1.55,2.67,2.67,0,0,0-.22-1.21,4,4,0,0,0-.49-.77v-.36h18.31v.36a20.61,20.61,0,0,0-1.7,1.59q-.84.89-1.62,1.8L219.73,49l8.49,13.57c1,1.65,2.06,3.24,3.07,4.78s2,2.92,3,4.17a22.1,22.1,0,0,0,3,3.14,6.5,6.5,0,0,0,3,1.56v.35a10,10,0,0,1-4,2.23,15.79,15.79,0,0,1-4.17.6,22.41,22.41,0,0,1-4.56-.42,13,13,0,0,1-3.79-1.45,14.59,14.59,0,0,1-3.32-2.72,27.9,27.9,0,0,1-3.11-4.25Z"/><path class="cls-1" d="M264.13,29.11v.36q-1.69,1.76-2.22,5.72a67.77,67.77,0,0,0-.53,9.05V63.47a67.66,67.66,0,0,0,.53,9q.52,4,2.22,5.73v.35H245.89v-.35c1.13-1.18,1.88-3.09,2.23-5.73a69.37,69.37,0,0,0,.53-9V44.24a69.48,69.48,0,0,0-.53-9.05c-.35-2.64-1.1-4.55-2.23-5.72v-.36Z"/><path class="cls-1" d="M325.78,54.07a27.7,27.7,0,0,1-2.12,11.35,22,22,0,0,1-5.72,7.88,23.29,23.29,0,0,1-8.42,4.6,34.29,34.29,0,0,1-10.18,1.48h-.92a34.56,34.56,0,0,1-10.25-1.48,23.25,23.25,0,0,1-8.41-4.6A22,22,0,0,1,274,65.42a27.87,27.87,0,0,1-2.12-11.35v-.35A28.13,28.13,0,0,1,274,42.33a22,22,0,0,1,5.73-7.91,23.1,23.1,0,0,1,8.41-4.6,34.56,34.56,0,0,1,10.25-1.49h.92a34.29,34.29,0,0,1,10.18,1.49,23.14,23.14,0,0,1,8.42,4.6,22,22,0,0,1,5.72,7.91,28,28,0,0,1,2.12,11.39Zm-40.72-.21a18.31,18.31,0,0,0,.95,6,14.17,14.17,0,0,0,2.69,4.7,11.53,11.53,0,0,0,4.21,3,13.81,13.81,0,0,0,5.51,1.06h.92a13.56,13.56,0,0,0,5.48-1.06,11.47,11.47,0,0,0,4.17-3,14,14,0,0,0,2.69-4.7,19.58,19.58,0,0,0,0-12,13.62,13.62,0,0,0-2.69-4.7,12.08,12.08,0,0,0-4.17-3,13.24,13.24,0,0,0-5.48-1.1h-.92a13.49,13.49,0,0,0-5.51,1.1,12.14,12.14,0,0,0-4.21,3,13.78,13.78,0,0,0-2.69,4.7A18.43,18.43,0,0,0,285.06,53.86Z"/><path class="cls-1" d="M355.12,29.11a38.08,38.08,0,0,1,10.5,1.28,20.45,20.45,0,0,1,7.25,3.53A13.9,13.9,0,0,1,377,39.33a17.29,17.29,0,0,1,1.34,6.82q0,5.94-2.51,9.55a16.88,16.88,0,0,1-6.54,5.58l.78,1.27c1,1.65,2.06,3.24,3.08,4.78s2,2.92,3,4.17a22.1,22.1,0,0,0,3,3.14,6.5,6.5,0,0,0,3,1.56v.35a10.64,10.64,0,0,1-3.82,2.12,14.43,14.43,0,0,1-4.45.71,22,22,0,0,1-4.49-.42,12.93,12.93,0,0,1-3.78-1.45,14.42,14.42,0,0,1-3.33-2.72,28.59,28.59,0,0,1-3.11-4.25l-3.74-5.94c-1.09.1-2.15.17-3.19.22L349,65a63,63,0,0,0,.6,8.13,9,9,0,0,0,2.16,5.16v.35H333.56v-.35q1.69-1.77,2.23-5.73a69.37,69.37,0,0,0,.53-9V44.24a69.48,69.48,0,0,0-.53-9.05q-.54-4-2.23-5.72v-.36ZM349,55.7a53.94,53.94,0,0,0,5.8-.46,19.89,19.89,0,0,0,5.2-1.38,9.83,9.83,0,0,0,3.71-2.69,6.74,6.74,0,0,0,1.41-4.45,5.87,5.87,0,0,0-2.9-5.34q-2.89-1.8-8.2-1.8h-5Z"/><path class="cls-1" d="M406.24,29.11v.36q-1.69,1.76-2.23,5.72a69.48,69.48,0,0,0-.53,9.05V63.47a69.37,69.37,0,0,0,.53,9q.54,4,2.23,5.73v.35H388v-.35q1.69-1.77,2.23-5.73a69.37,69.37,0,0,0,.53-9V44.24a69.48,69.48,0,0,0-.53-9.05q-.54-4-2.23-5.72v-.36Z"/><path class="cls-1" d="M215.14,126.34l2-3.58a9.63,9.63,0,0,0,6,2.09c2.42,0,3.73-.66,3.73-2s-1.64-2.06-4.12-2.72l-1.15-.31c-4-1.06-6.79-2.69-6.79-6.45,0-4.28,3.45-7.16,8.67-7.16a12.8,12.8,0,0,1,7.84,2.58l-2.33,3.7a8.74,8.74,0,0,0-5.46-1.88c-2,0-3.24.73-3.24,1.88,0,1.39,1.61,1.94,3.7,2.48l1.15.34c3.61,1,7.22,3,7.22,7s-3.58,6.91-8.92,6.91A12.66,12.66,0,0,1,215.14,126.34Z"/><path class="cls-1" d="M255.19,110.91h-6.64v18h-5.34v-18h-6.63v-4.39h18.61Z"/><path class="cls-1" d="M260.89,120.19V106.52h5.31V120a4.82,4.82,0,1,0,9.63,0V106.52h5.31v13.67c0,5.45-4,9.06-10.09,9.06S260.89,125.64,260.89,120.19Z"/><path class="cls-1" d="M309.45,117.7c0,6.73-4.45,11.25-11.15,11.25h-9.46V106.52h9.46C305,106.52,309.45,111,309.45,117.7Zm-5.51,0c0-4.09-2.21-6.79-5.55-6.79h-4.21v13.64h4.21C301.73,124.55,303.94,121.79,303.94,117.7Z"/><path class="cls-1" d="M316.13,106.52h5.34V129h-5.34Z"/><path class="cls-1" d="M328.11,117.73c0-6.91,4.85-11.52,12.12-11.52s12,4.61,12,11.52-4.84,11.52-12,11.52S328.11,124.64,328.11,117.73Zm18.67,0c0-4.27-2.64-7.12-6.55-7.12s-6.6,2.85-6.6,7.12,2.63,7.12,6.6,7.12S346.78,122,346.78,117.73Z"/><path class="cls-1" d="M358.16,126.34l2-3.58a9.63,9.63,0,0,0,6,2.09c2.42,0,3.73-.66,3.73-2s-1.64-2.06-4.13-2.72l-1.15-.31c-4-1.06-6.79-2.69-6.79-6.45,0-4.28,3.46-7.16,8.67-7.16a12.81,12.81,0,0,1,7.85,2.58l-2.33,3.7a8.74,8.74,0,0,0-5.46-1.88c-2,0-3.24.73-3.24,1.88,0,1.39,1.61,1.94,3.7,2.48l1.15.34c3.61,1,7.21,3,7.21,7s-3.58,6.91-8.91,6.91A12.66,12.66,0,0,1,358.16,126.34Z"/><polygon class="cls-1" points="85.42 46.19 122.43 10.48 96.15 10.48 58.52 46.19 85.42 46.19"/><polygon class="cls-1" points="85.49 73.08 121.19 110.09 121.19 83.81 85.49 46.17 85.49 73.08"/><polygon class="cls-1" points="85.44 100.01 38.85 148.24 38.85 121.96 85.44 73.1 85.44 100.01"/><polygon class="cls-1" points="38.95 94.23 55.54 76.71 19.76 76.71 2.76 94.23 38.95 94.23"/><polygon class="cls-1" points="58.56 3.76 38.94 3.76 38.94 64.62 58.56 46.21 58.56 3.76"/></svg>