<svg id="Capa_1" data-name="Capa 1" xmlns="http://www.w3.org/2000/svg" xmlns:xlink="http://www.w3.org/1999/xlink" viewBox="0 0 800 800"><defs><style>.cls-1{fill:url(#Áåçûìÿííûé_ãðàäèåíò_2306);}.cls-2{fill:url(#Áåçûìÿííûé_ãðàäèåíò_2306-2);}.cls-3{fill:url(#Áåçûìÿííûé_ãðàäèåíò_2306-3);}.cls-4{fill:url(#Áåçûìÿííûé_ãðàäèåíò_2306-4);}.cls-5{fill:url(#Áåçûìÿííûé_ãðàäèåíò_2306-5);}.cls-6{fill:url(#Áåçûìÿííûé_ãðàäèåíò_2306-6);}.cls-7{fill:url(#Áåçûìÿííûé_ãðàäèåíò_2306-7);}.cls-8{fill:url(#Áåçûìÿííûé_ãðàäèåíò_2306-8);}.cls-9{fill:url(#Áåçûìÿííûé_ãðàäèåíò_2306-9);}.cls-10{fill:url(#Áåçûìÿííûé_ãðàäèåíò_2306-10);}</style><linearGradient id="Áåçûìÿííûé_ãðàäèåíò_2306" x1="-2.5" y1="786" x2="793.74" y2="479.52" gradientUnits="userSpaceOnUse"><stop offset="0" stop-color="#9f4013"/><stop offset="0.06" stop-color="#ad5321"/><stop offset="0.18" stop-color="#d18646"/><stop offset="0.31" stop-color="#f9bf6f"/><stop offset="0.31" stop-color="#fcd888"/><stop offset="0.31" stop-color="#ffec9c"/><stop offset="0.43" stop-color="#f9bf6f"/><stop offset="0.43" stop-color="#f7bb6c"/><stop offset="0.44" stop-color="#f0aa5d"/><stop offset="0.45" stop-color="#eb9f53"/><stop offset="0.47" stop-color="#e8984d"/><stop offset="0.51" stop-color="#e7964b"/><stop offset="0.62" stop-color="#f0a95c"/><stop offset="0.72" stop-color="#f9bf6f"/><stop offset="0.72" stop-color="#f9c070"/><stop offset="0.72" stop-color="#fbcb7b"/><stop offset="0.73" stop-color="#fdd282"/><stop offset="0.74" stop-color="#fdd484"/><stop offset="0.89" stop-color="#d59756"/><stop offset="1" stop-color="#b96c36"/></linearGradient><linearGradient id="Áåçûìÿííûé_ãðàäèåíò_2306-2" x1="14.87" y1="831.11" x2="811.1" y2="524.63" xlink:href="#Áåçûìÿííûé_ãðàäèåíò_2306"/><linearGradient id="Áåçûìÿííûé_ãðàäèåíò_2306-3" x1="28.24" y1="865.85" x2="824.48" y2="559.37" xlink:href="#Áåçûìÿííûé_ãðàäèåíò_2306"/><linearGradient id="Áåçûìÿííûé_ãðàäèåíò_2306-4" x1="41.61" y1="900.59" x2="837.85" y2="594.11" xlink:href="#Áåçûìÿííûé_ãðàäèåíò_2306"/><linearGradient id="Áåçûìÿííûé_ãðàäèåíò_2306-5" x1="62.27" y1="954.26" x2="858.5" y2="647.77" xlink:href="#Áåçûìÿííûé_ãðàäèåíò_2306"/><linearGradient id="Áåçûìÿííûé_ãðàäèåíò_2306-6" x1="74.16" y1="985.14" x2="870.39" y2="678.66" xlink:href="#Áåçûìÿííûé_ãðàäèåíò_2306"/><linearGradient id="Áåçûìÿííûé_ãðàäèåíò_2306-7" x1="254.31" y1="152.51" x2="389.67" y2="1059.02" xlink:href="#Áåçûìÿííûé_ãðàäèåíò_2306"/><linearGradient id="Áåçûìÿííûé_ãðàäèåíò_2306-8" x1="331.43" y1="-263.06" x2="466.79" y2="643.45" xlink:href="#Áåçûìÿííûé_ãðàäèåíò_2306"/><linearGradient id="Áåçûìÿííûé_ãðàäèåíò_2306-9" x1="372.93" y1="299.02" x2="508.3" y2="1205.53" xlink:href="#Áåçûìÿííûé_ãðàäèåíò_2306"/><linearGradient id="Áåçûìÿííûé_ãðàäèåíò_2306-10" x1="458.34" y1="-4.45" x2="593.7" y2="902.06" xlink:href="#Áåçûìÿííûé_ãðàäèåíò_2306"/></defs><path class="cls-1" d="M53,742.15c0-31.49,26.76-57.92,58.24-57.92a57.46,57.46,0,0,1,41.28,17.62l-11.58,11.09c-7.51-8.15-18.11-13.54-29.7-13.54C88.89,699.4,70,719,70,742.15c0,23.33,18.92,42.91,41.27,42.91,11.59,0,22.19-5.39,29.7-13.55l11.58,11.1a58.11,58.11,0,0,1-41.28,17.62C79.76,800.23,53,773.63,53,742.15Z"/><path class="cls-2" d="M250.92,775.43h-58.4l-9.79,22.84H164.45l48.13-112.08h18.28L279,798.27H260.71Zm-6.36-14.85L221.72,707.4l-22.84,53.18Z"/><path class="cls-3" d="M300.71,686.19h16.48l64.44,85v-85h16.48V798.27H381.63l-64.44-85v85H300.71Z"/><path class="cls-4" d="M534.37,686.19,486.24,798.27H468L419.83,686.19h18.28l39,90.87,39-90.87Z"/><path class="cls-5" d="M618.25,775.43H559.84l-9.79,22.84H531.78l48.13-112.08h18.27l48.13,112.08H628Zm-6.36-14.85L589,707.4l-22.83,53.18Z"/><path class="cls-6" d="M660,782.12l10-12.24c10,9.47,21.7,15.67,36.88,15.67,15.5,0,23.49-8.16,23.49-17.14,0-10.6-9.3-14.68-28.06-18.92-22.84-5.39-38-12.24-38-32.47,0-18.76,16.32-32.95,38.83-32.95,17.3,0,30.19,6.36,40.95,15.82l-9.46,12.4c-9.46-8.65-20.72-13.7-32.14-13.7-12.56,0-21.37,8-21.37,17,0,10.44,9.62,14,28.06,18.43C731.5,739.21,747,746.72,747,766.78c0,18.93-14.36,33.29-40.78,33.29C687.45,800.07,672,793.54,660,782.12Z"/><path class="cls-7" d="M284.27,479.22,158.19,353.15,284.27,227.08,410.34,353.15ZM182.87,353.15l101.4,101.39L385.66,353.15,284.27,251.76Z"/><path class="cls-8" d="M398,365.49,215.26,182.75,398,0,580.74,182.75ZM239.94,182.75,398,340.81,556.06,182.75,398,24.68Z"/><path class="cls-9" d="M398,593,271.93,466.88,398,340.81,524.07,466.88ZM296.61,466.88,398,568.28l101.39-101.4L398,365.49Z"/><path class="cls-10" d="M511.73,479.22,385.66,353.15,511.73,227.08,637.81,353.15ZM410.34,353.15,511.73,454.54l101.4-101.39L511.73,251.76Z"/></svg>